# xmcd CD database file
#
# Track frame offsets:
#	150
#	28412
#	48900
#	75525
#	100562
#	125350
#	150777
#	173312
#	188962
#	219662
#	239987
#	264325
#	281487
#
# Disc length: 4017 seconds
#
# Revision: 0
# Processed by: cddbd v1.5.1PL0 Copyright (c) Steve Scherf et al.
# Submitted via: CDex 1.51
#
DISCID=a50faf0d
DTITLE=The Keepers - Slow Delivery
DYEAR=1994
DGENRE=Blues
TTITLE0=Spider Tree
TTITLE1=Slow Delivery
TTITLE2=That Lover is Me
TTITLE3=When He's Gone
TTITLE4=Tunnel Thru the Fortress
TTITLE5=Bright Train
TTITLE6=Alone Like That
TTITLE7=What Can You Do?
TTITLE8=Jacob Marley's Ghost
TTITLE9=Establishing a Psychic Connection With Jed Clampett
TTITLE10=Gentle Old Curse
TTITLE11=Let It Go
TTITLE12=Soul Eclipse
EXTD=YEAR: 1994
EXTT0=
EXTT1=
EXTT2=
EXTT3=
EXTT4=
EXTT5=
EXTT6=
EXTT7=
EXTT8=
EXTT9=
EXTT10=
EXTT11=
EXTT12=
PLAYORDER=
